<svg width="916" height="916" viewBox="0 0 916 916" fill="none" xmlns="http://www.w3.org/2000/svg">
<rect x="473" y="15" width="199" height="199" fill="black" stroke="white" stroke-width="30"/>
<rect x="473" y="244" width="199" height="199" fill="black" stroke="white" stroke-width="30"/>
<rect x="244" y="244" width="199" height="199" fill="black" stroke="white" stroke-width="30"/>
<rect x="15" y="15" width="199" height="199" fill="black" stroke="white" stroke-width="30"/>
<rect x="702" y="15" width="199" height="199" fill="black" stroke="white" stroke-width="30"/>
<rect x="702" y="473" width="199" height="199" fill="black" stroke="white" stroke-width="30"/>
<rect x="702" y="702" width="199" height="199" fill="black" stroke="white" stroke-width="30"/>
<rect x="702" y="244" width="199" height="199" fill="black" stroke="white" stroke-width="30"/>
<rect x="473" y="702" width="199" height="199" fill="black" stroke="white" stroke-width="30"/>
<rect x="244" y="15" width="199" height="199" fill="black" stroke="white" stroke-width="30"/>
<rect x="473" y="473" width="199" height="199" fill="black" stroke="white" stroke-width="30"/>
<rect x="244" y="473" width="199" height="199" fill="black" stroke="white" stroke-width="30"/>
<rect x="244" y="702" width="199" height="199" fill="black" stroke="white" stroke-width="30"/>
<rect x="15" y="473" width="199" height="199" fill="black" stroke="white" stroke-width="30"/>
<rect x="15" y="702" width="199" height="199" fill="black" stroke="white" stroke-width="30"/>
<rect x="15" y="244" width="199" height="199" fill="black" stroke="white" stroke-width="30"/>
</svg>
