<svg width="976" height="1066" viewBox="0 0 976 1066" fill="none" xmlns="http://www.w3.org/2000/svg">
<rect x="488" y="30" width="229" height="229" fill="black" stroke="white" stroke-width="60"/>
<rect x="30" y="30" width="229" height="229" fill="black" stroke="white" stroke-width="60"/>
<rect x="717" y="30" width="229" height="229" fill="black" stroke="white" stroke-width="60"/>
<rect x="717" y="488" width="229" height="229" fill="black" stroke="white" stroke-width="60"/>
<rect x="717" y="259" width="229" height="229" fill="black" stroke="white" stroke-width="60"/>
<rect x="488" y="488" width="229" height="229" fill="black" stroke="white" stroke-width="60"/>
<rect x="259" y="30" width="229" height="229" fill="black" stroke="white" stroke-width="60"/>
<rect x="259" y="488" width="229" height="229" fill="black" stroke="white" stroke-width="60"/>
<rect x="30" y="488" width="229" height="229" fill="black" stroke="white" stroke-width="60"/>
<rect x="30" y="259" width="229" height="229" fill="black" stroke="white" stroke-width="60"/>
<path d="M587.6 946L521 879.4V570.4L587.6 503.8H805.4L869.6 567.4L810.2 624.4L764 579.4H638.6L614.6 602.8V846.4L638.6 870.4H768.8L814.4 825.4L873.8 882.4L810.2 946H587.6Z" fill="white"/>
<path d="M587.6 946L559.316 974.284L571.031 986H587.6V946ZM521 879.4H481V895.969L492.716 907.684L521 879.4ZM521 570.4L492.716 542.116L481 553.831V570.4H521ZM587.6 503.8V463.8H571.031L559.316 475.516L587.6 503.8ZM805.4 503.8L833.551 475.383L821.859 463.8H805.4V503.8ZM869.6 567.4L897.295 596.261L926.896 567.856L897.751 538.983L869.6 567.4ZM810.2 624.4L782.29 653.054L809.993 680.037L837.895 653.261L810.2 624.4ZM764 579.4L791.91 550.746L780.261 539.4H764V579.4ZM638.6 579.4V539.4H622.327L610.676 550.76L638.6 579.4ZM614.6 602.8L586.676 574.16L574.6 585.934V602.8H614.6ZM614.6 846.4H574.6V862.969L586.316 874.684L614.6 846.4ZM638.6 870.4L610.316 898.684L622.031 910.4H638.6V870.4ZM768.8 870.4V910.4H785.214L796.896 898.871L768.8 870.4ZM814.4 825.4L842.095 796.539L814.01 769.588L786.304 796.929L814.4 825.4ZM873.8 882.4L902.084 910.684L930.958 881.811L901.495 853.539L873.8 882.4ZM810.2 946V986H826.769L838.484 974.284L810.2 946ZM615.884 917.716L549.284 851.116L492.716 907.684L559.316 974.284L615.884 917.716ZM561 879.4V570.4H481V879.4H561ZM549.284 598.684L615.884 532.084L559.316 475.516L492.716 542.116L549.284 598.684ZM587.6 543.8H805.4V463.8H587.6V543.8ZM777.249 532.217L841.449 595.817L897.751 538.983L833.551 475.383L777.249 532.217ZM841.905 538.539L782.505 595.539L837.895 653.261L897.295 596.261L841.905 538.539ZM838.11 595.746L791.91 550.746L736.09 608.054L782.29 653.054L838.11 595.746ZM764 539.4H638.6V619.4H764V539.4ZM610.676 550.76L586.676 574.16L642.524 631.44L666.524 608.04L610.676 550.76ZM574.6 602.8V846.4H654.6V602.8H574.6ZM586.316 874.684L610.316 898.684L666.884 842.116L642.884 818.116L586.316 874.684ZM638.6 910.4H768.8V830.4H638.6V910.4ZM796.896 898.871L842.496 853.871L786.304 796.929L740.704 841.929L796.896 898.871ZM786.705 854.261L846.105 911.261L901.495 853.539L842.095 796.539L786.705 854.261ZM845.516 854.116L781.916 917.716L838.484 974.284L902.084 910.684L845.516 854.116ZM810.2 906H587.6V986H810.2V906Z" fill="black"/>
</svg>
